<?xml version="1.0" encoding="utf-8"?>
<!-- Generator: Adobe Illustrator 23.0.0, SVG Export Plug-In . SVG Version: 6.00 Build 0)  -->
<svg version="1.1" id="圖層_1" xmlns="http://www.w3.org/2000/svg" xmlns:xlink="http://www.w3.org/1999/xlink" x="0px" y="0px"
	 viewBox="0 0 150 150" style="enable-background:new 0 0 150 150;" xml:space="preserve">
<style type="text/css">
	.st0{fill:#191919;}
	.st1{fill:#DBD000;}
	.st2{fill:#FFFFFF;}
</style>
<g>
	<g>
		<rect class="st0" width="150" height="150"/>
	</g>
	<circle class="st1" cx="81.6" cy="47.2" r="35.4"/>
	<g>
		<g>
			<path class="st0" d="M20.4,97c0-0.4,0.1-0.8,0-1.2c-0.3-1.6,0.3-2.2,1.9-2.5c8.1-1.7,16.1-3.6,24.2-5.3c3.3-0.7,4.1-1.7,4.2-5.1
				c0.1-1.8-0.5-2.9-1.9-4c-4-3.1-7-7-8.9-11.7c-0.8-1.9-1.8-3.5-3.4-4.8c-3.2-2.8-4.6-6.4-4.9-10.7c-0.3-3.3-1.1-6.5-2-9.7
				c-0.6-2.3-1-4.5-0.6-6.9c0.3-1.5,0.2-3.2-0.1-4.8c-0.8-3.3-0.2-6.2,1.8-8.8c0.7-0.9,1.6-1.7,2.2-2.7c2.2-3.5,4.4-7,6.5-10.6
				c1.1-1.9,2.5-3.1,4.7-3.4c1.3-0.2,2.7,0,3.7-0.6c4.4-2.4,9.2-2.6,14.1-2.8c3-0.1,6-0.1,9-0.2c2.6-0.1,5,0.4,7.2,1.8
				c3,1.9,5.8,3.8,8.7,5.8c1.3,0.9,2.7,1.2,4,0.2c1-0.7,1.6-0.4,2.3,0.3c1.1,1.2,1.5,2.8,0.9,4.2c-0.8,1.9-1.8,3.8-3,5.5
				c-0.5,0.7-0.8,1.1-0.5,2c0.9,3.5,1.8,7.1,2.6,10.7c0.4,1.9,1,3.6,2.3,5.2c4.3,5,4.4,13,0.4,17.3c-1.2,1.2-1.6,2.5-1.8,4.1
				c-0.9,6.3-2.5,12.4-6,17.9c-3.6,5.7-8.4,9.7-15.6,10c-0.7,0-1.4,0.1-2.1,0.2c-0.1,0.2-0.2,0.3-0.3,0.5c0.5,0.6,1,1.6,1.7,1.8
				c4.8,1.3,9.7,2.2,14.4,3.6c4.2,1.3,8.3,3.2,12.4,4.8C72.4,97,46.4,97,20.4,97z M76.2,48.9c-1.8,4.3-5,6.6-9.2,6.3
				c-4.4-0.3-6.8-3.2-8.1-6.9c-0.9-2.6-0.9-5.5-1.4-8.4c-1.3,0.2-3,0.5-4.6,0.9c-0.4,0.1-1,0.8-1,1.2c-0.4,5-0.8,10.1-1.1,15.1
				c-0.1,1,0.2,2.3-1.1,2.4c-0.8,0.1-1.8-0.7-2.4-1.3c-2-2.5-2.1-5.7-2.5-8.7c-0.2-1.9-0.4-3.9-0.3-5.8c0.1-1.7-0.7-2.7-2-3.4
				c-0.4-0.3-1.3-0.1-1.8,0.2c-3.4,1.6-4.6,6.8-2.5,9.9c0.9,1.3,1.5,2.7,1.5,4.5c0.2,11.3,5.2,19.8,15,25.4
				c6.2,3.5,12.9,4.4,19.8,3.5c3.1-0.4,5.8-2,8-4.2c6.3-6.3,8.3-14.4,9.4-22.4c-0.8-0.7-1.3-1.1-1.8-1.6c0.5-0.5,1-0.9,1.4-1.4
				c0.3-0.3,0.8-0.7,0.8-1.1c-0.1-5-0.2-10-0.4-15c-0.1-1.5-1.4-1.2-2.1-0.8c-1,0.6-1.9,1.5-2.6,2.4c-1,1.3-1.8,1.3-2.6,0
				c-0.2-0.3-0.5-0.7-0.8-0.8c-2.2-0.4-4.5-0.7-7.1-1.1C77.9,41.8,77.6,45.4,76.2,48.9z M58.4,33c2.3-0.8,4.5-1.8,6.9-2.3
				c1.8-0.4,3.7-0.2,5.6,0.1c6.4,0.9,12.7,2,19.1,3c0.4,0.1,0.7,0.1,1.6,0.2c-1.2-4.7-2.3-9.2-3.6-13.5c-0.2-0.6-1.6-1-2.5-1.1
				c-4.6,0-9-0.8-13.5-2.1c-1.5-0.4-3.1-0.5-4.6-0.6c-1.3-0.1-2.7,0.1-4,0.1c-4.1,0-6.7,2.2-8.1,5.8c-1.5,3.8-1.6,7.7-0.3,11.7
				C56.2,33.8,57.3,33.4,58.4,33z M74.4,38.6c-1.1-3.4-1.5-3.6-5-3.8c-1.1-0.1-2.3-0.1-3.2-0.6c-1.3-0.6-2-0.2-2.9,0.7
				c-4.4,4.2-4.1,12.8,0.6,16.6c2.2,1.8,5.3,1.8,7.7-0.2c2.3-2,3.7-5.1,3.8-8.6C75,41.3,74.8,39.9,74.4,38.6z M59.7,86.1
				c-2.1-1.4-4.2-2.8-6.3-4.2c-0.6,2.5-1.1,4.7-1.7,7.4c1.9,0.9,4.2,2,6.5,3c1.4,0.6,2.8,1,4.2,1.4c1.2,0.3,2.1,0,3-1
				c0.7-0.8,1.7-1.5,2.3-2.4c0.4-0.6,0.5-1.6,0.7-2.3C64.9,88.6,62.2,87.7,59.7,86.1z M94.6,41.1c0,3.5,0,6.9,0,10.8
				C96.8,48.2,96.7,42.4,94.6,41.1z"/>
		</g>
		<path class="st2" d="M83.7,39c0.3,0.1,0.6,0.5,0.8,0.8c0.8,1.4,1.6,1.3,2.6,0c0.7-0.9,1.6-1.8,2.6-2.4c0.7-0.4,2-0.7,2.1,0.8
			c0.2,5,0.3,10,0.4,15c0,0.4-0.5,0.7-0.8,1.1c-0.5,0.5-1,0.9-1.4,1.4c0.5,0.4,1,0.9,1.8,1.6c-1.2,8-3.2,16.1-9.4,22.4
			c-2.2,2.2-4.8,3.8-8,4.2c-7,0.8-13.7,0-19.8-3.5c-9.8-5.6-14.8-14.1-15-25.4c0-1.8-0.6-3.1-1.5-4.5c-2.1-3.1-0.9-8.3,2.5-9.9
			c0.5-0.3,1.4-0.4,1.8-0.2c1.2,0.7,2.1,1.6,2,3.4c-0.2,1.9,0.1,3.9,0.3,5.8c0.3,3,0.5,6.2,2.5,8.7c0.5,0.7,1.6,1.4,2.4,1.3
			c1.3-0.1,1.1-1.4,1.1-2.4c0.3-5,0.7-10.1,1.1-15.1c0-0.5,0.6-1.1,1-1.2c1.6-0.4,3.3-0.7,4.6-0.9c0.4,2.9,0.5,5.8,1.4,8.4
			c1.2,3.8,3.7,6.6,8.1,6.9c4.2,0.3,7.4-2,9.2-6.3c1.4-3.5,1.7-7.1,0.5-11C79.3,38.3,81.5,38.6,83.7,39z M84.9,43.2
			c-0.4,0.4-0.5,1.5-0.3,2.1c1,2.3,2.1,4.6,3.3,6.9c0.3,0.5,1.4,0.9,1.8,0.7c1-0.4,0.7-1.3,0.2-2.1c-0.4-0.7-0.9-1.4-1.1-1.8
			c0.8-0.4,1.9-0.6,2.1-1.1c0.3-1.3-0.8-1.6-1.8-1.8c-1.9-0.3-2.3-0.8-2.2-3c1,0.1,1.9,0.2,2.9,0.3c1,0.1,1.5-0.5,1.3-1.4
			c-0.1-0.5-0.8-1.2-1.3-1.2c-1,0-2.1,0.2-3,0.5c-0.1,0.1,0.1,1.2,0.1,1.8C86.3,43.1,85.3,42.8,84.9,43.2z M79.7,63.5
			c-2-1.6-4-0.5-6,0.1c-1.7,0.5-3.4,1.3-5.3,0.6c-0.4-0.2-1.4,0.5-1.6,1c-0.3,0.7-0.1,1.5,0,2.3c0,0.1,1.2,0.3,1.2,0.1
			c0.7-1.4,2.2-1,3.3-1.3c1.1-0.4,2.3-0.6,3.4-0.9c1.4-0.5,2.8-0.9,4.1,0.1c0.2,0.1,0.5,0.2,0.8,0.2c1.5-0.3,2.6,0.4,3.8,1.2
			c0.5,0.3,1.4,0,2.2-0.1c-0.3-0.5-0.5-1.2-1-1.5c-1.1-0.8-2.4-1.4-3.6-2.1c-0.1,0.1-0.1,0.3-0.2,0.4C80.4,63.5,79.9,63.6,79.7,63.5
			z M81.3,69.8c0.3-0.2,0.4-1,0.2-1.4c-0.1-0.2-1-0.5-1.2-0.3c-1.5,0.9-3,0.4-4.5-0.1c-0.4-0.2-1,0.2-1.5,0.3
			c0.2,0.5,0.2,1.3,0.6,1.5c1.1,0.6,2.3,0.9,3.6,1.3C79.4,70.7,80.4,70.4,81.3,69.8z M40.5,49.2c0.1,0.4,0.9,0.9,1.1,0.8
			c0.4-0.2,1-0.8,1-1.2c0.1-1.5,0.1-3,0-4.5c0-0.4-0.4-1-0.7-1.2c-0.3-0.1-1.1,0.1-1.2,0.4c-0.5,0.8-0.7,1.8-1,2.6
			C40,47.3,40.1,48.3,40.5,49.2z M81.7,56.3c0.4-0.2,0.7-0.7,1.1-1c-0.4-0.3-0.8-0.9-1.2-1c-0.9-0.1-1.9-0.1-2.8,0.1
			c-0.5,0.1-0.9,0.8-1.3,1.2c0.5,0.3,1,0.7,1.6,0.9c0.2,0.1,0.5,0,0.8,0l0,0C80.5,56.5,81.1,56.5,81.7,56.3z"/>
		<path class="st2" d="M55,34.3c1.2-0.5,2.3-0.9,3.4-1.3c2.3-0.8,4.5-1.8,6.9-2.3c1.8-0.4,3.7-0.2,5.6,0.1c6.4,0.9,12.7,2,19.1,3
			c0.4,0.1,0.7,0.1,1.6,0.2c-1.2-4.7-2.3-9.2-3.6-13.5c-0.2-0.6-1.6-1-2.5-1.1c-4.6,0-9-0.8-13.5-2.1c-1.5-0.4-3.1-0.5-4.6-0.6
			c-1.3-0.1-2.7,0.1-4,0.1c-4.1,0-6.7,2.2-8.1,5.8C53.9,26.4,53.7,30.2,55,34.3z"/>
		<path class="st2" d="M71.4,51.3c-2.3,1.9-5.4,2-7.7,0.2c-4.6-3.8-4.9-12.5-0.6-16.6c0.9-0.8,1.6-1.3,2.9-0.7
			c1,0.5,2.1,0.5,3.2,0.6c3.5,0.2,4,0.5,5,3.8c0.4,1.3,0.6,2.7,0.9,4C75.1,46.2,73.8,49.4,71.4,51.3z M71.8,41.2
			c0.5-0.1,1.2-0.6,1.3-1c0.1-0.4-0.4-1.3-0.8-1.4c-1.8-0.3-3.7-0.5-5.6-0.4c-0.5,0-1.1,1-1.6,1.5c0.6,0.4,1.2,0.9,1.9,1.1
			c0.7,0.2,1.4,0,2.1,0c0,0,0,0,0,0.1C70,41.3,70.9,41.4,71.8,41.2z M69.1,49.2c1.5-0.9,2.9-1.8,4.3-2.8c0.3-0.2,0.4-0.9,0.3-1.3
			c-0.1-0.3-0.9-0.8-1.1-0.7c-1.8,1-3.5,2.1-5.2,3.1c-0.2,0.1-0.2,0.4-0.2,0.5C67.2,49.1,68.3,49.7,69.1,49.2z"/>
		<path class="st2" d="M68.5,87.9c-3.6,0.8-6.3-0.2-8.8-1.8c-2.1-1.4-4.2-2.8-6.3-4.2c-0.6,2.5-1.1,4.7-1.7,7.4c1.9,0.9,4.2,2,6.5,3
			c1.4,0.6,2.8,1,4.2,1.4c1.2,0.3,2.1,0,3-1c0.7-0.8,1.7-1.5,2.3-2.4C68.2,89.6,68.3,88.7,68.5,87.9z"/>
		<path class="st2" d="M94.6,51.9c2.2-3.7,2.1-9.5,0-10.8C94.6,44.5,94.6,48,94.6,51.9z"/>
		<g>
			<path class="st0" d="M80.8,63.5c-0.4,0-0.9,0.1-1.1-0.1c-2-1.6-4-0.5-6,0.1c-1.7,0.5-3.4,1.3-5.3,0.6C68,64,67,64.7,66.8,65.2
				c-0.3,0.7-0.1,1.5,0,2.3c0,0.1,1.2,0.3,1.2,0.1c0.7-1.4,2.2-1,3.3-1.3c1.1-0.4,2.3-0.6,3.4-0.9c1.4-0.5,2.8-0.9,4.1,0.1
				c0.2,0.1,0.5,0.2,0.8,0.2c1.5-0.3,2.6,0.4,3.8,1.2c0.5,0.3,1.4,0,2.2-0.1c-0.3-0.5-0.5-1.2-1-1.5c-1.1-0.8-2.4-1.4-3.6-2.1
				C81,63.3,80.9,63.4,80.8,63.5z"/>
		</g>
		<g>
			<path class="st0" d="M87,43c-0.7,0-1.7-0.2-2.1,0.1c-0.4,0.4-0.5,1.5-0.3,2.1c1,2.3,2.1,4.6,3.3,6.9c0.3,0.5,1.4,0.9,1.8,0.7
				c1-0.4,0.7-1.3,0.2-2.1c-0.4-0.7-0.9-1.4-1.1-1.8c0.8-0.4,1.9-0.6,2.1-1.1c0.3-1.3-0.8-1.6-1.8-1.8C87.2,45.7,86.9,45.2,87,43
				L87,43z"/>
		</g>
		<g>
			<path class="st0" d="M78.4,71.1c1-0.4,2-0.7,2.9-1.3c0.3-0.2,0.4-1,0.2-1.4c-0.1-0.2-1-0.5-1.2-0.3c-1.5,0.9-3,0.4-4.5-0.1
				c-0.4-0.2-1,0.2-1.5,0.3c0.2,0.5,0.2,1.3,0.6,1.5C75.9,70.4,77.1,70.7,78.4,71.1z"/>
		</g>
		<g>
			<path class="st0" d="M39.7,46.1c0.3,1.2,0.4,2.2,0.8,3.1c0.1,0.4,0.9,0.9,1.1,0.8c0.4-0.2,1-0.8,1-1.2c0.1-1.5,0.1-3,0-4.5
				c0-0.4-0.4-1-0.7-1.2c-0.3-0.1-1.1,0.1-1.2,0.4C40.2,44.4,40,45.3,39.7,46.1z"/>
		</g>
		<g>
			<path class="st0" d="M87,43c1,0.1,1.9,0.2,2.9,0.3c1,0.1,1.5-0.5,1.3-1.4c-0.1-0.5-0.8-1.2-1.3-1.2c-1,0-2.1,0.2-3,0.5
				C86.7,41.3,86.9,42.4,87,43L87,43z"/>
		</g>
		<g>
			<path class="st0" d="M79.9,56.5c0.6-0.1,1.3,0,1.8-0.2c0.4-0.2,0.7-0.7,1.1-1c-0.4-0.3-0.8-0.9-1.2-1c-0.9-0.1-1.9-0.1-2.8,0.1
				c-0.5,0.1-0.9,0.8-1.3,1.2c0.5,0.3,1,0.7,1.6,0.9C79.3,56.7,79.6,56.5,79.9,56.5L79.9,56.5z"/>
		</g>
		<g>
			<path class="st0" d="M69.2,41.3c0.9,0,1.8,0.1,2.6,0c0.5-0.1,1.2-0.6,1.3-1c0.1-0.4-0.4-1.3-0.8-1.4c-1.8-0.3-3.7-0.5-5.6-0.4
				c-0.5,0-1.1,1-1.6,1.5c0.6,0.4,1.2,0.9,1.9,1.1C67.7,41.4,68.4,41.2,69.2,41.3C69.2,41.2,69.2,41.3,69.2,41.3z"/>
		</g>
		<g>
			<path class="st0" d="M67.2,48c0,1,1.1,1.7,1.9,1.2c1.5-0.9,2.9-1.8,4.3-2.8c0.3-0.2,0.4-0.9,0.3-1.3c-0.1-0.3-0.9-0.8-1.1-0.7
				c-1.8,1-3.5,2.1-5.2,3.1C67.3,47.6,67.3,47.9,67.2,48z"/>
		</g>
		<g>
			<path class="st0" d="M20.4,97.3c-0.1,0-0.2,0-0.2-0.1S20,97.1,20,97s0-0.3,0-0.4c0-0.3,0-0.5,0-0.7c-0.3-1.7,0.4-2.5,2.2-2.9
				c5.3-1.1,10.6-2.3,15.8-3.5c2.8-0.6,5.6-1.3,8.4-1.9c3.2-0.7,3.8-1.5,4-4.8c0.1-1.7-0.4-2.7-1.8-3.7c-4-3.1-7-7-9-11.8
				c-0.8-2-1.9-3.5-3.3-4.7c-3-2.7-4.6-6.2-5-10.9c-0.2-3-1-6-1.8-9L29.4,42c-0.5-2-1.1-4.4-0.6-7c0.3-1.6,0.2-3.2-0.1-4.6
				c-0.9-3.4-0.3-6.3,1.8-9.1c0.3-0.4,0.6-0.8,0.9-1.1c0.5-0.5,0.9-1,1.2-1.6c2.5-3.9,4.6-7.4,6.5-10.6c1.2-2.1,2.8-3.2,4.9-3.5
				c0.4-0.1,0.8-0.1,1.2-0.1c0.9-0.1,1.7-0.1,2.4-0.5c4.6-2.5,9.5-2.7,14.2-2.8c2-0.1,4-0.1,5.9-0.1c1,0,2,0,3-0.1
				c0.1,0,0.3,0,0.4,0c2.7,0,5,0.6,6.9,1.8c3,1.9,6.1,4,8.7,5.8c0.8,0.5,1.5,0.8,2.1,0.8c0.5,0,1-0.2,1.5-0.6
				c0.4-0.3,0.8-0.5,1.2-0.5c0.7,0,1.2,0.5,1.5,0.8c1.2,1.4,1.6,3,1,4.5c-0.7,1.8-1.7,3.7-3,5.6l-0.1,0.1c-0.4,0.6-0.6,0.9-0.4,1.6
				c1,3.9,1.9,7.4,2.6,10.7c0.3,1.6,0.9,3.4,2.3,5c4.4,5.1,4.6,13.3,0.4,17.8c-1,1.1-1.5,2.2-1.8,3.9c-1,7.4-2.9,13.1-6,18
				c-4.1,6.5-9.3,9.9-15.8,10.2c-0.5,0-0.9,0.1-1.4,0.1c-0.2,0-0.3,0-0.5,0l-0.1,0.1c0.1,0.2,0.2,0.3,0.4,0.5c0.3,0.4,0.6,0.9,1,1
				c1.9,0.5,3.9,1,5.8,1.4c2.8,0.7,5.8,1.3,8.6,2.2c2.9,0.9,5.8,2.1,8.6,3.3c1.2,0.5,2.5,1,3.8,1.5c0.1,0.1,0.2,0.2,0.2,0.4
				c0,0.2-0.2,0.3-0.3,0.3L20.4,97.3L20.4,97.3z M52.1,89c0.5,0.2,1,0.4,1.5,0.7c1.5,0.7,3.1,1.5,4.8,2.2c1.4,0.6,2.8,1,4.2,1.4
				c0.3,0.1,0.5,0.1,0.8,0.1c0.7,0,1.3-0.3,1.9-1c0.3-0.4,0.7-0.7,1.1-1.1c0.5-0.4,0.9-0.8,1.2-1.3c0.3-0.4,0.4-0.9,0.5-1.5
				c0-0.1,0-0.2,0.1-0.3c-0.7,0.1-1.4,0.2-2,0.2c-2.2,0-4.3-0.7-6.5-2.1c-1.5-1-2.9-2-4.4-2.9c-0.5-0.4-1-0.7-1.6-1.1L52.1,89z
				 M42,40.5c-0.3,0-0.8,0.1-1.1,0.3c-1.5,0.7-2.6,2.2-3.1,4.1s-0.2,3.9,0.7,5.4c1.1,1.5,1.5,3,1.6,4.7c0.2,11.1,5.2,19.6,14.9,25.1
				c4.5,2.6,9.3,3.8,14.9,3.8c1.5,0,3.1-0.1,4.8-0.3c2.8-0.3,5.4-1.7,7.8-4.1c6.3-6.3,8.2-14.3,9.3-22L89.9,56
				c-0.1-0.1-0.1-0.1-0.1-0.2s0-0.2,0.1-0.2c0.1-0.1,0.3-0.3,0.4-0.4c0.3-0.3,0.7-0.6,1-1c0.1-0.1,0.1-0.1,0.2-0.2
				c0.2-0.2,0.5-0.5,0.5-0.6c-0.1-5.8-0.2-10.5-0.4-15c0-0.8-0.4-0.9-0.7-0.9c-0.3,0-0.6,0.1-0.9,0.3c-0.9,0.5-1.7,1.3-2.6,2.4
				c-0.6,0.8-1.1,1.1-1.6,1.1c-0.7,0-1.2-0.7-1.5-1.2c-0.3-0.4-0.5-0.6-0.6-0.6c-1.7-0.3-3.4-0.5-5.2-0.8c-0.4-0.1-0.9-0.1-1.4-0.2
				c1,3.7,0.8,7.2-0.7,10.7c-1.7,4.2-4.9,6.5-8.8,6.5c-0.2,0-0.5,0-0.7,0c-4-0.3-6.9-2.7-8.4-7.1c-0.6-1.8-0.8-3.7-1-5.8
				c-0.1-0.8-0.2-1.6-0.3-2.4c-0.2,0-0.5,0.1-0.7,0.1c-1.1,0.2-2.3,0.4-3.5,0.7c-0.3,0.1-0.7,0.6-0.8,0.9c-0.4,4.8-0.8,9.9-1.1,15.1
				c0,0.2,0,0.3,0,0.5c0,0.9,0,2.1-1.4,2.2h-0.1c-0.9,0-2-0.8-2.5-1.5c-1.8-2.3-2.1-5.1-2.4-7.9c0-0.3-0.1-0.6-0.1-1v-0.1
				c-0.2-1.9-0.4-3.8-0.3-5.7c0.1-1.4-0.4-2.3-1.8-3.1C42.3,40.6,42.2,40.5,42,40.5z M65,34.2c-0.5,0-1,0.3-1.6,0.9
				c-2,1.9-3.1,5-3,8.3s1.4,6.1,3.5,7.9c1,0.8,2.2,1.3,3.5,1.3l0,0c1.4,0,2.7-0.5,3.8-1.4c2.2-1.9,3.6-4.8,3.7-8.4
				c-0.1-0.4-0.2-0.8-0.2-1.2c-0.2-0.9-0.3-1.9-0.6-2.7c-1.1-3.3-1.4-3.4-4.8-3.6h-0.2c-1-0.3-2.2-0.3-3.1-0.8
				C65.6,34.3,65.3,34.2,65,34.2z M94.9,41.8c0,2.8,0,5.6,0,8.7C96.3,47.3,96.1,43.4,94.9,41.8z M66.6,17c-0.5,0-1.1,0-1.6,0.1
				c-0.5,0-1,0-1.6,0.1c-3.7,0-6.4,1.9-7.8,5.6c-1.4,3.7-1.5,7.3-0.4,11.2c0.3-0.1,0.5-0.2,0.8-0.3c0.8-0.3,1.6-0.6,2.3-0.9
				c0.6-0.2,1.2-0.5,1.8-0.7c1.6-0.6,3.4-1.3,5.1-1.6c0.7-0.1,1.5-0.2,2.4-0.2c1,0,2,0.1,3.3,0.3c4.5,0.7,9.2,1.4,13.6,2.1
				c1.8,0.3,3.6,0.6,5.5,0.9c0.2,0,0.5,0.1,0.8,0.1c0.1,0,0.2,0,0.3,0c-0.3-1-0.5-1.9-0.7-2.9c-0.9-3.5-1.8-6.9-2.8-10.2
				c-0.1-0.3-1.3-0.8-2.2-0.8c-4.2,0-8.6-0.7-13.5-2.1c-1.4-0.4-2.9-0.5-4.3-0.5h-0.2C67.1,17,66.9,17,66.6,17z"/>
		</g>
		<g>
			<path class="st0" d="M67.7,68c-0.3,0-1.2,0-1.3-0.5v-0.1c-0.1-0.8-0.3-1.7,0-2.4c0.2-0.5,1.2-1.3,1.8-1.3c0.1,0,0.2,0,0.2,0
				c0.5,0.2,1,0.3,1.5,0.3c0.9,0,1.7-0.3,2.6-0.5c0.3-0.1,0.7-0.2,1-0.3c0.3-0.1,0.7-0.2,1-0.3c0.9-0.3,1.8-0.6,2.8-0.6
				c0.9,0,1.7,0.3,2.5,0.9c0,0,0.1,0,0.3,0c0.1,0,0.2,0,0.3,0c0.1,0,0.1,0,0.2,0l0.1-0.2c0-0.1,0.1-0.1,0.2-0.2H81
				c0.1,0,0.1,0,0.2,0c0.3,0.2,0.7,0.4,1,0.6c0.9,0.5,1.8,1,2.6,1.5c0.4,0.3,0.6,0.7,0.8,1.1c0.1,0.2,0.2,0.3,0.3,0.5
				c0.1,0.1,0.1,0.2,0,0.3c-0.1,0.1-0.2,0.2-0.3,0.2c-0.2,0-0.5,0.1-0.7,0.1c-0.3,0.1-0.7,0.1-1,0.1s-0.5-0.1-0.7-0.2
				c-1-0.7-1.9-1.2-2.9-1.2c-0.2,0-0.4,0-0.6,0.1c-0.1,0-0.1,0-0.2,0c-0.3,0-0.6-0.1-0.8-0.2c-0.5-0.4-1-0.5-1.6-0.5
				c-0.7,0-1.5,0.3-2.2,0.5c-0.6,0.2-1.2,0.3-1.7,0.5c-0.5,0.1-1.1,0.3-1.6,0.4c-0.4,0.1-0.8,0.2-1.2,0.2c-0.8,0.1-1.6,0.1-2,1
				C68.2,68,67.9,68,67.7,68z"/>
		</g>
		<g>
			<path class="st0" d="M89.5,53.2c-0.6,0-1.6-0.4-1.8-0.9c-1.2-2.2-2.3-4.5-3.3-6.9c-0.3-0.7-0.2-1.9,0.3-2.4
				c0.3-0.3,0.7-0.3,1-0.3c0.2,0,0.4,0,0.6,0s0.4,0,0.5,0h0.1c0.1,0,0.1,0,0.2,0l0,0c0.1,0.1,0.2,0.2,0.1,0.4v0.1
				c-0.1,1.9,0.2,2.2,1.9,2.5c0.8,0.1,1.6,0.3,1.9,0.9c0.2,0.3,0.3,0.8,0.1,1.3c-0.1,0.5-0.7,0.7-1.4,1c-0.2,0.1-0.3,0.1-0.5,0.2
				v0.1c0.2,0.4,0.6,0.9,0.9,1.4c0.4,0.7,0.6,1.3,0.5,1.8c-0.1,0.4-0.4,0.6-0.8,0.8C89.8,53.1,89.7,53.2,89.5,53.2z"/>
		</g>
		<g>
			<path class="st0" d="M78.4,71.4L78.4,71.4c-0.4-0.1-0.8-0.2-1.1-0.3c-0.9-0.3-1.8-0.6-2.6-1c-0.4-0.2-0.5-0.7-0.6-1.2
				c0-0.2-0.1-0.4-0.1-0.5s0-0.2,0-0.3c0-0.1,0.1-0.1,0.2-0.2c0.1,0,0.3-0.1,0.5-0.1c0.3-0.1,0.6-0.2,0.9-0.2c0.1,0,0.3,0,0.4,0.1
				c0.8,0.3,1.6,0.6,2.5,0.6c0.6,0,1.2-0.1,1.7-0.4c0.1-0.1,0.3-0.1,0.4-0.1c0.3,0,1.1,0.1,1.3,0.6c0.2,0.5,0.1,1.5-0.3,1.8
				c-0.6,0.4-1.3,0.7-2.1,0.9c-0.3,0.1-0.6,0.2-0.9,0.3C78.5,71.4,78.4,71.4,78.4,71.4z"/>
		</g>
		<g>
			<path class="st0" d="M41.5,50.3c-0.4,0-1.2-0.5-1.4-1c-0.3-0.7-0.4-1.4-0.6-2.1c-0.1-0.3-0.1-0.7-0.2-1c0-0.1,0-0.1,0-0.2
				c0.1-0.2,0.2-0.4,0.2-0.7c0.2-0.6,0.5-1.3,0.8-2c0.2-0.4,0.9-0.6,1.3-0.6c0.1,0,0.2,0,0.3,0.1c0.5,0.2,0.9,0.9,0.9,1.4
				c0.1,1.8,0.1,3.2,0,4.6C42.8,49.4,42.1,50.1,41.5,50.3C41.7,50.3,41.6,50.3,41.5,50.3L41.5,50.3z"/>
		</g>
		<g>
			<path class="st0" d="M90.1,43.6c-0.1,0-0.1,0-0.2,0c-0.7-0.1-1.3-0.1-2-0.2l-0.8-0.1c0,0,0,0-0.1,0s-0.1,0-0.2-0.1
				s-0.2-0.2-0.1-0.4l0,0c0-0.2,0-0.3-0.1-0.5c-0.1-1-0.2-1.4,0.2-1.5c1.1-0.4,2-0.6,2.9-0.6c0.1,0,0.2,0,0.2,0
				c0.6,0,1.4,0.8,1.6,1.4s0,1-0.2,1.3C91.1,43.3,90.8,43.6,90.1,43.6z"/>
		</g>
		<g>
			<path class="st0" d="M79.3,56.9c-0.1,0-0.3,0-0.4-0.1c-0.4-0.2-0.8-0.4-1.2-0.7c-0.1-0.1-0.3-0.2-0.4-0.3
				c-0.1-0.1-0.1-0.1-0.1-0.2s0-0.2,0.1-0.3c0.1-0.1,0.2-0.3,0.4-0.4c0.3-0.4,0.6-0.7,1.1-0.9c0.5-0.1,1.1-0.2,1.7-0.2
				c0.4,0,0.8,0,1.3,0.1c0.4,0.1,0.7,0.4,1,0.7c0.1,0.1,0.2,0.2,0.3,0.3c0.1,0.1,0.1,0.1,0.1,0.2s0,0.2-0.1,0.2
				c-0.1,0.1-0.2,0.2-0.3,0.3c-0.3,0.3-0.5,0.6-0.9,0.8c-0.4,0.2-0.9,0.2-1.4,0.2c-0.2,0-0.4,0-0.5,0l0,0c0,0,0,0-0.1,0
				s-0.1,0-0.2,0C79.5,56.9,79.4,56.9,79.3,56.9z"/>
		</g>
		<g>
			<path class="st0" d="M70.7,41.6c-0.3,0-0.5,0-0.8,0s-0.5,0-0.8,0c-0.1,0-0.1,0-0.2-0.1c-0.2,0-0.3,0-0.5,0s-0.5,0-0.7,0
				c-0.4,0-0.6,0-0.9-0.1c-0.5-0.2-1-0.5-1.4-0.8c-0.2-0.1-0.4-0.3-0.5-0.4s-0.1-0.1-0.1-0.2s0-0.2,0.1-0.3c0.2-0.2,0.3-0.4,0.5-0.6
				c0.4-0.5,0.8-1,1.3-1.1c0.3,0,0.5,0,0.8,0c1.4,0,2.9,0.1,4.8,0.4c0.3,0,0.5,0.3,0.7,0.5c0.2,0.4,0.5,0.9,0.4,1.2
				c-0.1,0.6-1,1.1-1.5,1.2C71.5,41.6,71.2,41.6,70.7,41.6L70.7,41.6z"/>
		</g>
		<g>
			<path class="st0" d="M68.5,49.7c-0.4,0-0.8-0.2-1.1-0.5c-0.3-0.3-0.5-0.7-0.5-1.2v-0.1v-0.1c0-0.2,0.1-0.4,0.3-0.6h0.1
				c1.7-1,3.4-2.1,5.1-3.1c0.1,0,0.1-0.1,0.2-0.1c0.4,0,1.1,0.5,1.3,0.9c0.2,0.4,0,1.3-0.4,1.6c-1.5,1.1-2.9,2-4.3,2.8
				C69,49.6,68.8,49.7,68.5,49.7L68.5,49.7z"/>
		</g>
	</g>
</g>
</svg>
