<?xml version="1.0" encoding="utf-8"?>
<!-- Generator: Adobe Illustrator 23.0.0, SVG Export Plug-In . SVG Version: 6.00 Build 0)  -->
<svg version="1.1" id="圖層_1" xmlns="http://www.w3.org/2000/svg" xmlns:xlink="http://www.w3.org/1999/xlink" x="0px" y="0px"
	 viewBox="0 0 99.4 64.1" style="enable-background:new 0 0 99.4 64.1;" xml:space="preserve">
<style type="text/css">
	.st0{fill:#F2F2F2;}
</style>
<g>
	<path class="st0" d="M0,53l8.7-6.4c2.5,4.6,5.8,6.5,9.4,6.5c5.5,0,8.4-3,8.4-11.6V0H39v42.6c0,11.8-6,21.5-19.5,21.5
		C10.4,64.1,4.2,60.3,0,53z"/>
	<path class="st0" d="M54.1,0h20.7c13.9,0,24.6,4.8,24.6,19.7c0,14.4-10.8,20.8-24.3,20.8h-8.4v22.4H54.1V0z M74.3,30.6
		c8.7,0,12.8-3.7,12.8-10.9c0-7.3-4.6-9.8-13.3-9.8h-7.1v20.7C66.7,30.6,74.3,30.6,74.3,30.6z"/>
</g>
</svg>
