<?xml version="1.0" encoding="utf-8"?>
<!-- Generator: Adobe Illustrator 23.0.0, SVG Export Plug-In . SVG Version: 6.00 Build 0)  -->
<svg version="1.1" id="圖層_1" xmlns="http://www.w3.org/2000/svg" xmlns:xlink="http://www.w3.org/1999/xlink" x="0px" y="0px"
	 viewBox="0 0 30 30" style="enable-background:new 0 0 30 30;" xml:space="preserve">
<style type="text/css">
	.st0{fill:#FFFFFF;}
</style>
<g>
	<path class="st0" d="M0,21l2.6-1.9c0.8,1.4,1.8,2,2.8,2C7.1,21,8,20.1,8,17.5V5h3.8v12.9c0,3.6-1.8,6.5-5.9,6.5
		C3.1,24.3,1.3,23.2,0,21z"/>
	<path class="st0" d="M16.3,5h6.2c4.2,0,7.4,1.4,7.4,5.9c0,4.3-3.3,6.3-7.3,6.3h-2.5V24h-3.8V5z M22.4,14.2c2.6,0,3.9-1.1,3.9-3.3
		c0-2.2-1.4-3-4-3h-2.1v6.2C20.1,14.2,22.4,14.2,22.4,14.2z"/>
</g>
</svg>
