<?xml version="1.0" encoding="utf-8"?>
<!-- Generator: Adobe Illustrator 23.0.0, SVG Export Plug-In . SVG Version: 6.00 Build 0)  -->
<svg version="1.1" id="圖層_1" xmlns="http://www.w3.org/2000/svg" xmlns:xlink="http://www.w3.org/1999/xlink" x="0px" y="0px"
	 viewBox="0 0 342 131.9" style="enable-background:new 0 0 342 131.9;" xml:space="preserve">
<style type="text/css">
	.st0{opacity:0.1;fill:#F2F2F2;}
	.st1{opacity:0.1;fill:#DBD000;}
	.st2{clip-path:url(#clipCircle_1_);}
	.st3{fill:#DBD000;}
	.st4{fill:#FFFFFF;stroke:#0F0F0F;stroke-width:2;stroke-miterlimit:10;}
</style>
<path id="P" class="st0" d="M242.1,0h44.9c30.3,0,53.6,10.4,53.6,42.8c0,31.3-23.3,45.2-52.9,45.2h-18.4v40.7h-27.1V0z M285.9,66.4
	c18.8,0,27.8-8,27.8-23.7c0-16-10.1-21.2-28.9-21.2h-15.3v44.9H285.9z"/>
<circle id="bg_x5F_circle" class="st1" cx="64.3" cy="67.5" r="64.3"/>
<path id="J" class="st0" d="M175.6,0v82.4c0,18.8-6.3,25.4-18.1,25.4c-1.7,0-3.5-0.3-5.2-0.7c-3.1,7.3-7.7,14.3-12.5,20.2
	c6.3,2.4,12.9,4.2,21.2,4.2c29.2,0,42.1-20.9,42.1-46.6V0H175.6z"/>
<g id="leafsGroup">
	<defs>
		<circle id="clipCircle" cx="64.3" cy="67.5" r="64.3"/>
	</defs>
	<clipPath id="clipCircle_1_">
		<use xlink:href="#clipCircle"  style="overflow:visible;"/>
	</clipPath>
	<g id="leafs" class="st2">
		<circle id="leafBg" class="st3" cx="64.3" cy="67.5" r="106.3"/>
		<g>
			<rect id="leaf6" x="-412" y="-130.4" transform="matrix(0.9659 -0.2588 0.2588 0.9659 -29.248 -48.3318)" class="st4" width="427.7" height="434.7"/>
			<rect id="leaf5" x="-263.9" y="87.2" transform="matrix(0.2588 -0.9659 0.9659 0.2588 -331.2918 177.3486)" class="st4" width="427.7" height="434.7"/>
			<rect id="leaf4" x="-1.4" y="67.7" transform="matrix(-0.7071 -0.7071 0.7071 -0.7071 161.0604 636.9291)" class="st4" width="427.7" height="434.7"/>
			<rect id="leaf3" x="113" y="-169.3" transform="matrix(-0.9659 0.2588 -0.2588 -0.9659 655.0333 9.8304)" class="st4" width="427.7" height="434.7"/>
			<polygon id="leaf2" class="st4" points="24.2,-432.4 -45.9,-170.9 1,4.1 333.4,93.2 444.1,-319.9 "/>
			<polygon id="leaf1" class="st4" points="-47.9,-178.4 14.4,54.1 221.1,-152.7 -81.3,-455.1 -388.7,-147.7 -340.9,-99.9 "/>
		</g>
	</g>
</g>
</svg>
