<?xml version="1.0" encoding="utf-8"?>
<!-- Generator: Adobe Illustrator 23.0.0, SVG Export Plug-In . SVG Version: 6.00 Build 0)  -->
<svg version="1.1" id="圖層_1" xmlns="http://www.w3.org/2000/svg" xmlns:xlink="http://www.w3.org/1999/xlink" x="0px" y="0px"
	 viewBox="0 0 342 191" style="enable-background:new 0 0 342 191;" xml:space="preserve">
<style type="text/css">
	.st0{fill:#F2F2F2;}
	.st1{fill:#DBD000;}
</style>
<g>
	<g>
		<path class="st0" d="M120,53l8.7-6.4c2.5,4.6,5.8,6.5,9.4,6.5c5.5,0,8.4-3,8.4-11.6V0H159v42.6c0,11.8-6,21.5-19.5,21.5
			C130.4,64.1,124.2,60.3,120,53z"/>
		<path class="st0" d="M174.1,0h20.7c13.9,0,24.6,4.8,24.6,19.7c0,14.4-10.8,20.8-24.3,20.8h-8.4v22.4h-12.6V0z M194.3,30.6
			c8.7,0,12.8-3.7,12.8-10.9c0-7.3-4.6-9.8-13.3-9.8h-7.1v20.7H194.3z"/>
	</g>
	<g>
		<path class="st0" d="M72.5,84.7c0,0.2-0.2,0.4-0.5,0.4h-2.9v8.7c0,0.3-0.2,0.5-0.4,0.5c-0.3,0-0.5-0.2-0.5-0.5v-8.7h-2.9
			c-0.3,0-0.5-0.2-0.5-0.4c0-0.3,0.2-0.5,0.5-0.5h6.8C72.3,84.2,72.5,84.4,72.5,84.7z"/>
		<path class="st0" d="M94.3,93.5c0.2,0.2,0.2,0.5,0,0.6c-0.1,0.1-0.2,0.1-0.3,0.1c-0.1,0-0.2,0-0.3-0.1l-2.8-2.9h-2.4v2.6
			c0,0.3-0.2,0.5-0.5,0.5c-0.3,0-0.5-0.2-0.5-0.5v-9.1c0-0.3,0.2-0.5,0.5-0.5h3c1.9,0,3.5,1.6,3.5,3.5c0,1.6-1.1,3-2.6,3.4
			L94.3,93.5z M88.5,90.3H91c1.4,0,2.6-1.2,2.6-2.6c0-1.4-1.2-2.6-2.6-2.6h-2.6V90.3z"/>
		<path class="st0" d="M118.2,94.2c-0.1,0-0.1,0-0.2,0c-0.2,0-0.3-0.1-0.4-0.3l-1.1-2.4h-5l-1.1,2.4c-0.1,0.2-0.4,0.3-0.6,0.2
			c-0.2-0.1-0.3-0.4-0.2-0.6l4-9.1c0.1-0.2,0.2-0.3,0.4-0.3c0.2,0,0.3,0.1,0.4,0.3l4,9.1C118.5,93.8,118.4,94.1,118.2,94.2z
			 M116.1,90.7l-2.1-4.9l-2.1,4.9H116.1z"/>
		<path class="st0" d="M135.5,94.3c-0.2,0-0.4-0.1-0.4-0.3l-3.4-9.1c-0.1-0.2,0-0.5,0.3-0.6c0.2-0.1,0.5,0,0.6,0.3l3,8l3-8
			c0.1-0.2,0.3-0.3,0.6-0.3c0.2,0.1,0.4,0.3,0.3,0.6l-3.4,9.1C135.8,94.1,135.6,94.3,135.5,94.3z"/>
		<path class="st0" d="M161.2,93.8c0,0.3-0.2,0.5-0.5,0.5h-5.9c-0.3,0-0.5-0.2-0.5-0.5v-9.1c0-0.3,0.2-0.5,0.5-0.5h5.9
			c0.2,0,0.5,0.2,0.5,0.5c0,0.2-0.2,0.4-0.5,0.4h-5.5v3.4h4c0.2,0,0.5,0.2,0.5,0.4c0,0.3-0.2,0.5-0.5,0.5h-4v3.9h5.5
			C161,93.3,161.2,93.6,161.2,93.8z"/>
		<path class="st0" d="M181.6,94.3h-5c-0.2,0-0.5-0.2-0.5-0.5v-9.1c0-0.3,0.2-0.5,0.5-0.5c0.3,0,0.5,0.2,0.5,0.5v8.7h4.5
			c0.3,0,0.5,0.2,0.5,0.5C182.1,94.1,181.9,94.3,181.6,94.3z"/>
		<path class="st0" d="M225.6,94.3c-2.8,0-5-2.2-5-5c0-2.8,2.3-5,5-5c1.4,0,2.8,0.6,3.8,1.7c0.2,0.2,0.1,0.5,0,0.6
			c-0.2,0.2-0.5,0.2-0.6,0c-0.8-0.9-1.9-1.4-3.1-1.4c-2.3,0-4.1,1.8-4.1,4.1c0,2.3,1.8,4.1,4.1,4.1c1.1,0,2.2-0.5,3-1.3v-2H226
			c-0.3,0-0.5-0.2-0.5-0.5c0-0.3,0.2-0.5,0.5-0.5h3.1c0.3,0,0.5,0.2,0.5,0.5v2.6c0,0.1,0,0.2-0.1,0.3
			C228.4,93.6,227.1,94.3,225.6,94.3z"/>
		<path class="st0" d="M248.7,94.3c-2.2,0-4-1.8-4-4v-5.5c0-0.3,0.2-0.5,0.4-0.5c0.3,0,0.5,0.2,0.5,0.5v5.5c0,1.7,1.4,3.1,3.1,3.1
			c1.7,0,3.1-1.4,3.1-3.1v-5.5c0-0.3,0.2-0.5,0.5-0.5c0.3,0,0.5,0.2,0.5,0.5v5.5C252.7,92.5,250.9,94.3,248.7,94.3z"/>
		<path class="st0" d="M274.6,93.8c0,0.3-0.2,0.5-0.5,0.5h-5.9c-0.3,0-0.5-0.2-0.5-0.5v-9.1c0-0.3,0.2-0.5,0.5-0.5h5.9
			c0.2,0,0.5,0.2,0.5,0.5c0,0.2-0.2,0.4-0.5,0.4h-5.5v3.4h4c0.2,0,0.5,0.2,0.5,0.4c0,0.3-0.2,0.5-0.5,0.5h-4v3.9h5.5
			C274.4,93.3,274.6,93.6,274.6,93.8z"/>
		<circle class="st1" cx="200.8" cy="89.5" r="5.1"/>
	</g>
</g>
</svg>
