<?xml version="1.0" encoding="utf-8"?>
<!-- Generator: Adobe Illustrator 23.0.0, SVG Export Plug-In . SVG Version: 6.00 Build 0)  -->
<svg version="1.1" id="圖層_1" xmlns="http://www.w3.org/2000/svg" xmlns:xlink="http://www.w3.org/1999/xlink" x="0px" y="0px"
	 viewBox="0 0 150 150" style="enable-background:new 0 0 150 150;" xml:space="preserve">
<style type="text/css">
	.st0{fill:#191919;}
	.st1{fill:#DBD000;}
	.st2{fill:#FFFFFF;}
</style>
<g>
	<g>
		<rect class="st0" width="150" height="150"/>
	</g>
	<circle class="st1" cx="78.2" cy="52.8" r="24.5"/>
	<g>
		<g>
			<path class="st0" d="M32.7,90.6c0-0.3,0.1-0.6,0-0.9c-0.2-1.2,0.2-1.6,1.4-1.9c6-1.3,12-2.7,18-3.9c2.5-0.5,3-1.3,3.1-3.8
				c0.1-1.3-0.4-2.2-1.4-3c-3-2.3-5.2-5.2-6.6-8.7c-0.6-1.4-1.3-2.6-2.5-3.6c-2.4-2.1-3.4-4.8-3.6-8c-0.2-2.5-0.8-4.8-1.5-7.2
				c-0.4-1.7-0.7-3.3-0.4-5.1c0.2-1.1,0.1-2.4-0.1-3.6c-0.6-2.5-0.1-4.6,1.3-6.5c0.5-0.7,1.2-1.3,1.6-2c1.6-2.6,3.3-5.2,4.8-7.9
				c0.8-1.4,1.9-2.3,3.5-2.5c1-0.1,2,0,2.7-0.4c3.3-1.8,6.8-1.9,10.5-2.1c2.2-0.1,4.5-0.1,6.7-0.1c1.9-0.1,3.7,0.3,5.4,1.3
				c2.2,1.4,4.3,2.8,6.5,4.3c1,0.7,2,0.9,3,0.1c0.7-0.5,1.2-0.3,1.7,0.2c0.8,0.9,1.1,2.1,0.7,3.1c-0.6,1.4-1.3,2.8-2.2,4.1
				c-0.4,0.5-0.6,0.8-0.4,1.5c0.7,2.6,1.3,5.3,1.9,8c0.3,1.4,0.7,2.7,1.7,3.9c3.2,3.7,3.3,9.7,0.3,12.9c-0.9,0.9-1.2,1.9-1.3,3
				c-0.7,4.7-1.9,9.2-4.5,13.3c-2.7,4.2-6.2,7.2-11.6,7.4c-0.5,0-1,0.1-1.6,0.1c-0.1,0.1-0.1,0.2-0.2,0.4c0.4,0.4,0.7,1.2,1.3,1.3
				c3.6,1,7.2,1.6,10.7,2.7c3.1,1,6.2,2.4,9.2,3.6C71.4,90.6,52.1,90.6,32.7,90.6z M74.2,54.9c-1.3,3.2-3.7,4.9-6.8,4.7
				c-3.3-0.2-5.1-2.4-6-5.1c-0.7-1.9-0.7-4.1-1-6.2c-1,0.1-2.2,0.4-3.4,0.7c-0.3,0.1-0.7,0.6-0.7,0.9c-0.3,3.7-0.6,7.5-0.8,11.2
				c-0.1,0.7,0.1,1.7-0.8,1.8c-0.6,0.1-1.3-0.5-1.8-1c-1.5-1.9-1.6-4.2-1.9-6.5c-0.1-1.4-0.3-2.9-0.2-4.3c0.1-1.3-0.5-2-1.5-2.5
				c-0.3-0.2-1-0.1-1.3,0.1c-2.5,1.2-3.4,5.1-1.9,7.4c0.7,1,1.1,2,1.1,3.3c0.1,8.4,3.9,14.7,11.1,18.9c4.6,2.6,9.6,3.3,14.7,2.6
				c2.3-0.3,4.3-1.5,5.9-3.1c4.7-4.7,6.2-10.7,7-16.6c-0.6-0.5-1-0.8-1.3-1.2c0.4-0.4,0.7-0.7,1-1c0.2-0.2,0.6-0.5,0.6-0.8
				c-0.1-3.7-0.1-7.4-0.3-11.1c-0.1-1.1-1-0.9-1.6-0.6c-0.7,0.4-1.4,1.1-1.9,1.8c-0.7,1-1.3,1-1.9,0c-0.1-0.2-0.4-0.5-0.6-0.6
				c-1.6-0.3-3.3-0.5-5.3-0.8C75.5,49.6,75.3,52.3,74.2,54.9z M61,43.1c1.7-0.6,3.3-1.3,5.1-1.7c1.3-0.3,2.7-0.1,4.2,0.1
				c4.8,0.7,9.4,1.5,14.2,2.2c0.3,0.1,0.5,0.1,1.2,0.1c-0.9-3.5-1.7-6.8-2.7-10c-0.1-0.4-1.2-0.7-1.9-0.8c-3.4,0-6.7-0.6-10-1.6
				C70,31.1,68.8,31,67.7,31c-1-0.1-2,0.1-3,0.1c-3,0-5,1.6-6,4.3c-1.1,2.8-1.2,5.7-0.2,8.7C59.4,43.7,60.2,43.4,61,43.1z
				 M72.9,47.2c-0.8-2.5-1.1-2.7-3.7-2.8c-0.8-0.1-1.7-0.1-2.4-0.4c-1-0.4-1.5-0.1-2.2,0.5c-3.3,3.1-3,9.5,0.4,12.3
				c1.6,1.3,3.9,1.3,5.7-0.1c1.7-1.5,2.7-3.8,2.8-6.4C73.3,49.3,73.2,48.2,72.9,47.2z M62,82.5c-1.6-1-3.1-2.1-4.7-3.1
				c-0.4,1.9-0.8,3.5-1.3,5.5c1.4,0.7,3.1,1.5,4.8,2.2c1,0.4,2.1,0.7,3.1,1c0.9,0.2,1.6,0,2.2-0.7c0.5-0.6,1.3-1.1,1.7-1.8
				c0.3-0.4,0.4-1.2,0.5-1.7C65.8,84.4,63.8,83.7,62,82.5z M87.9,49.1c0,2.6,0,5.1,0,8C89.5,54.4,89.4,50.1,87.9,49.1z"/>
		</g>
		<path class="st2" d="M79.8,47.5c0.2,0.1,0.4,0.4,0.6,0.6c0.6,1,1.2,1,1.9,0c0.5-0.7,1.2-1.3,1.9-1.8c0.5-0.3,1.5-0.5,1.6,0.6
			c0.1,3.7,0.2,7.4,0.3,11.1c0,0.3-0.4,0.5-0.6,0.8c-0.4,0.4-0.7,0.7-1,1c0.4,0.3,0.7,0.7,1.3,1.2c-0.9,5.9-2.4,12-7,16.6
			c-1.6,1.6-3.6,2.8-5.9,3.1c-5.2,0.6-10.2,0-14.7-2.6c-7.3-4.2-11-10.5-11.1-18.9c0-1.3-0.4-2.3-1.1-3.3c-1.6-2.3-0.7-6.2,1.9-7.4
			c0.4-0.2,1-0.3,1.3-0.1c0.9,0.5,1.6,1.2,1.5,2.5c-0.1,1.4,0.1,2.9,0.2,4.3c0.2,2.2,0.4,4.6,1.9,6.5c0.4,0.5,1.2,1,1.8,1
			c1-0.1,0.8-1,0.8-1.8c0.2-3.7,0.5-7.5,0.8-11.2c0-0.4,0.4-0.8,0.7-0.9c1.2-0.3,2.5-0.5,3.4-0.7c0.3,2.2,0.4,4.3,1,6.2
			c0.9,2.8,2.7,4.9,6,5.1c3.1,0.2,5.5-1.5,6.8-4.7c1-2.6,1.3-5.3,0.4-8.2C76.5,47,78.2,47.2,79.8,47.5z M80.7,50.7
			c-0.3,0.3-0.4,1.1-0.2,1.6c0.7,1.7,1.6,3.4,2.5,5.1c0.2,0.4,1,0.7,1.3,0.5c0.7-0.3,0.5-1,0.1-1.6c-0.3-0.5-0.7-1-0.8-1.3
			c0.6-0.3,1.4-0.4,1.6-0.8c0.2-1-0.6-1.2-1.3-1.3c-1.4-0.2-1.7-0.6-1.6-2.2c0.7,0.1,1.4,0.1,2.2,0.2s1.1-0.4,1-1
			c-0.1-0.4-0.6-0.9-1-0.9c-0.7,0-1.6,0.1-2.2,0.4c-0.1,0.1,0.1,0.9,0.1,1.3C81.7,50.6,81,50.4,80.7,50.7z M76.8,65.7
			c-1.5-1.2-3-0.4-4.5,0.1c-1.3,0.4-2.5,1-3.9,0.4c-0.3-0.1-1,0.4-1.2,0.7c-0.2,0.5-0.1,1.1,0,1.7c0,0.1,0.9,0.2,0.9,0.1
			c0.5-1,1.6-0.7,2.5-1c0.8-0.3,1.7-0.4,2.5-0.7c1-0.4,2.1-0.7,3,0.1c0.1,0.1,0.4,0.1,0.6,0.1c1.1-0.2,1.9,0.3,2.8,0.9
			c0.4,0.2,1,0,1.6-0.1c-0.2-0.4-0.4-0.9-0.7-1.1c-0.8-0.6-1.8-1-2.7-1.6c-0.1,0.1-0.1,0.2-0.1,0.3C77.3,65.7,77,65.8,76.8,65.7z
			 M78,70.4c0.2-0.1,0.3-0.7,0.1-1c-0.1-0.1-0.7-0.4-0.9-0.2c-1.1,0.7-2.2,0.3-3.3-0.1c-0.3-0.1-0.7,0.1-1.1,0.2
			c0.1,0.4,0.1,1,0.4,1.1c0.8,0.4,1.7,0.7,2.7,1C76.6,71.1,77.3,70.9,78,70.4z M47.7,55.1c0.1,0.3,0.7,0.7,0.8,0.6
			c0.3-0.1,0.7-0.6,0.7-0.9c0.1-1.1,0.1-2.2,0-3.3c0-0.3-0.3-0.7-0.5-0.9c-0.2-0.1-0.8,0.1-0.9,0.3c-0.4,0.6-0.5,1.3-0.7,1.9
			C47.3,53.7,47.4,54.5,47.7,55.1z M78.3,60.4c0.3-0.1,0.5-0.5,0.8-0.7c-0.3-0.2-0.6-0.7-0.9-0.7c-0.7-0.1-1.4-0.1-2.1,0.1
			c-0.4,0.1-0.7,0.6-1,0.9c0.4,0.2,0.7,0.5,1.2,0.7c0.1,0.1,0.4,0,0.6,0l0,0C77.4,60.5,77.9,60.5,78.3,60.4z"/>
		<path class="st2" d="M58.5,44c0.9-0.4,1.7-0.7,2.5-1c1.7-0.6,3.3-1.3,5.1-1.7c1.3-0.3,2.7-0.1,4.2,0.1c4.8,0.7,9.4,1.5,14.2,2.2
			c0.3,0.1,0.5,0.1,1.2,0.1c-0.9-3.5-1.7-6.8-2.7-10c-0.1-0.4-1.2-0.7-1.9-0.8c-3.4,0-6.7-0.6-10-1.6C70,31.1,68.8,31,67.7,31
			c-1-0.1-2,0.1-3,0.1c-3,0-5,1.6-6,4.3C57.6,38.2,57.5,41,58.5,44z"/>
		<path class="st2" d="M70.6,56.7c-1.7,1.4-4,1.5-5.7,0.1c-3.4-2.8-3.6-9.3-0.4-12.3c0.7-0.6,1.2-1,2.2-0.5c0.7,0.4,1.6,0.4,2.4,0.4
			c2.6,0.1,3,0.4,3.7,2.8c0.3,1,0.4,2,0.7,3C73.4,52.9,72.4,55.3,70.6,56.7z M70.9,49.2c0.4-0.1,0.9-0.4,1-0.7c0.1-0.3-0.3-1-0.6-1
			c-1.3-0.2-2.7-0.4-4.2-0.3c-0.4,0-0.8,0.7-1.2,1.1c0.4,0.3,0.9,0.7,1.4,0.8c0.5,0.1,1,0,1.6,0c0,0,0,0,0,0.1
			C69.6,49.3,70.3,49.3,70.9,49.2z M68.9,55.1c1.1-0.7,2.2-1.3,3.2-2.1c0.2-0.1,0.3-0.7,0.2-1c-0.1-0.2-0.7-0.6-0.8-0.5
			c-1.3,0.7-2.6,1.6-3.9,2.3c-0.1,0.1-0.1,0.3-0.1,0.4C67.5,55,68.3,55.5,68.9,55.1z"/>
		<path class="st2" d="M68.5,83.9c-2.7,0.6-4.7-0.1-6.5-1.3c-1.6-1-3.1-2.1-4.7-3.1c-0.4,1.9-0.8,3.5-1.3,5.5
			c1.4,0.7,3.1,1.5,4.8,2.2c1,0.4,2.1,0.7,3.1,1c0.9,0.2,1.6,0,2.2-0.7c0.5-0.6,1.3-1.1,1.7-1.8C68.3,85.1,68.3,84.5,68.5,83.9z"/>
		<path class="st2" d="M87.9,57.1c1.6-2.7,1.6-7.1,0-8C87.9,51.6,87.9,54.2,87.9,57.1z"/>
		<g>
			<path class="st0" d="M77.6,65.7c-0.3,0-0.7,0.1-0.8-0.1c-1.5-1.2-3-0.4-4.5,0.1c-1.3,0.4-2.5,1-3.9,0.4c-0.3-0.1-1,0.4-1.2,0.8
				c-0.2,0.5-0.1,1.1,0,1.7c0,0.1,0.9,0.2,0.9,0.1c0.5-1,1.6-0.7,2.5-1c0.8-0.3,1.7-0.4,2.5-0.7c1-0.4,2.1-0.7,3,0.1
				c0.1,0.1,0.4,0.1,0.6,0.1c1.1-0.2,1.9,0.3,2.8,0.9c0.4,0.2,1,0,1.6-0.1c-0.2-0.4-0.4-0.9-0.7-1.1c-0.8-0.6-1.8-1-2.7-1.6
				C77.8,65.6,77.7,65.7,77.6,65.7z"/>
		</g>
		<g>
			<path class="st0" d="M82.2,50.5c-0.5,0-1.3-0.1-1.6,0.1c-0.3,0.3-0.4,1.1-0.2,1.6c0.7,1.7,1.6,3.4,2.5,5.1c0.2,0.4,1,0.7,1.3,0.5
				c0.7-0.3,0.5-1,0.1-1.6c-0.3-0.5-0.7-1-0.8-1.3c0.6-0.3,1.4-0.4,1.6-0.8c0.2-1-0.6-1.2-1.3-1.3C82.4,52.5,82.2,52.1,82.2,50.5
				L82.2,50.5z"/>
		</g>
		<g>
			<path class="st0" d="M75.8,71.4c0.7-0.3,1.5-0.5,2.2-1c0.2-0.1,0.3-0.7,0.1-1c-0.1-0.1-0.7-0.4-0.9-0.2c-1.1,0.7-2.2,0.3-3.3-0.1
				c-0.3-0.1-0.7,0.1-1.1,0.2c0.1,0.4,0.1,1,0.4,1.1C74,70.9,74.9,71.1,75.8,71.4z"/>
		</g>
		<g>
			<path class="st0" d="M47.1,52.8c0.2,0.9,0.3,1.6,0.6,2.3c0.1,0.3,0.7,0.7,0.8,0.6c0.3-0.1,0.7-0.6,0.7-0.9c0.1-1.1,0.1-2.2,0-3.3
				c0-0.3-0.3-0.7-0.5-0.9c-0.2-0.1-0.8,0.1-0.9,0.3C47.5,51.6,47.3,52.2,47.1,52.8z"/>
		</g>
		<g>
			<path class="st0" d="M82.2,50.5c0.7,0.1,1.4,0.1,2.2,0.2c0.7,0.1,1.1-0.4,1-1c-0.1-0.4-0.6-0.9-1-0.9c-0.7,0-1.6,0.1-2.2,0.4
				C82,49.3,82.2,50.1,82.2,50.5L82.2,50.5z"/>
		</g>
		<g>
			<path class="st0" d="M77,60.5c0.4-0.1,1,0,1.3-0.1c0.3-0.1,0.5-0.5,0.8-0.7c-0.3-0.2-0.6-0.7-0.9-0.7c-0.7-0.1-1.4-0.1-2.1,0.1
				c-0.4,0.1-0.7,0.6-1,0.9c0.4,0.2,0.7,0.5,1.2,0.7C76.5,60.7,76.7,60.5,77,60.5L77,60.5z"/>
		</g>
		<g>
			<path class="st0" d="M69,49.3c0.7,0,1.3,0.1,1.9,0c0.4-0.1,0.9-0.4,1-0.7c0.1-0.3-0.3-1-0.6-1c-1.3-0.2-2.7-0.4-4.2-0.3
				c-0.4,0-0.8,0.7-1.2,1.1c0.4,0.3,0.9,0.7,1.4,0.8C67.9,49.3,68.4,49.2,69,49.3C69,49.2,69,49.3,69,49.3z"/>
		</g>
		<g>
			<path class="st0" d="M67.5,54.2c0,0.7,0.8,1.3,1.4,0.9c1.1-0.7,2.2-1.3,3.2-2.1c0.2-0.1,0.3-0.7,0.2-1c-0.1-0.2-0.7-0.6-0.8-0.5
				c-1.3,0.7-2.6,1.6-3.9,2.3C67.6,53.9,67.6,54.2,67.5,54.2z"/>
		</g>
		<g>
			<path class="st0" d="M32.7,90.9c-0.1,0-0.1,0-0.1-0.1s-0.1-0.1-0.1-0.1c0-0.1,0-0.2,0-0.3c0-0.2,0-0.4,0-0.5
				c-0.2-1.3,0.3-1.9,1.6-2.2C38,86.9,42,86,45.8,85.1c2.1-0.4,4.2-1,6.2-1.4c2.4-0.5,2.8-1.1,3-3.6c0.1-1.3-0.3-2-1.3-2.7
				c-3-2.3-5.2-5.2-6.7-8.8c-0.6-1.5-1.4-2.6-2.5-3.5c-2.2-2-3.4-4.6-3.7-8.1c-0.1-2.2-0.7-4.5-1.3-6.7l-0.1-0.5
				c-0.4-1.5-0.8-3.3-0.4-5.2c0.2-1.2,0.1-2.4-0.1-3.4c-0.7-2.5-0.2-4.7,1.3-6.8c0.2-0.3,0.4-0.6,0.7-0.8c0.4-0.4,0.7-0.7,0.9-1.2
				c1.9-2.9,3.4-5.5,4.8-7.9c0.9-1.6,2.1-2.4,3.6-2.6c0.3-0.1,0.6-0.1,0.9-0.1c0.7-0.1,1.3-0.1,1.8-0.4c3.4-1.9,7.1-2,10.6-2.1
				c1.5-0.1,3-0.1,4.4-0.1c0.7,0,1.5,0,2.2-0.1c0.1,0,0.2,0,0.3,0c2,0,3.7,0.4,5.1,1.3c2.2,1.4,4.5,3,6.5,4.3
				c0.6,0.4,1.1,0.6,1.6,0.6c0.4,0,0.7-0.1,1.1-0.4c0.3-0.2,0.6-0.4,0.9-0.4c0.5,0,0.9,0.4,1.1,0.6c0.9,1,1.2,2.2,0.7,3.3
				c-0.5,1.3-1.3,2.7-2.2,4.2l-0.1,0.1c-0.3,0.4-0.4,0.7-0.3,1.2c0.7,2.9,1.4,5.5,1.9,8c0.2,1.2,0.7,2.5,1.7,3.7
				c3.3,3.8,3.4,9.9,0.3,13.2c-0.7,0.8-1.1,1.6-1.3,2.9c-0.7,5.5-2.2,9.7-4.5,13.4c-3,4.8-6.9,7.4-11.7,7.6c-0.4,0-0.7,0.1-1,0.1
				c-0.1,0-0.2,0-0.4,0l-0.1,0.1c0.1,0.1,0.1,0.2,0.3,0.4c0.2,0.3,0.4,0.7,0.7,0.7c1.4,0.4,2.9,0.7,4.3,1c2.1,0.5,4.3,1,6.4,1.6
				c2.2,0.7,4.3,1.6,6.4,2.5c0.9,0.4,1.9,0.7,2.8,1.1c0.1,0.1,0.1,0.1,0.1,0.3c0,0.1-0.1,0.2-0.2,0.2L32.7,90.9L32.7,90.9z
				 M56.3,84.7c0.4,0.1,0.7,0.3,1.1,0.5c1.1,0.5,2.3,1.1,3.6,1.6c1,0.4,2.1,0.7,3.1,1c0.2,0.1,0.4,0.1,0.6,0.1c0.5,0,1-0.2,1.4-0.7
				c0.2-0.3,0.5-0.5,0.8-0.8c0.4-0.3,0.7-0.6,0.9-1c0.2-0.3,0.3-0.7,0.4-1.1c0-0.1,0-0.1,0.1-0.2c-0.5,0.1-1,0.1-1.5,0.1
				c-1.6,0-3.2-0.5-4.8-1.6c-1.1-0.7-2.2-1.5-3.3-2.2c-0.4-0.3-0.7-0.5-1.2-0.8L56.3,84.7z M48.8,48.7c-0.2,0-0.6,0.1-0.8,0.2
				c-1.1,0.5-1.9,1.6-2.3,3c-0.4,1.4-0.1,2.9,0.5,4c0.8,1.1,1.1,2.2,1.2,3.5c0.1,8.2,3.9,14.6,11.1,18.7c3.3,1.9,6.9,2.8,11.1,2.8
				c1.1,0,2.3-0.1,3.6-0.2c2.1-0.2,4-1.3,5.8-3C83.6,73,85,67,85.8,61.3l-1.4-1.1c-0.1-0.1-0.1-0.1-0.1-0.1c0-0.1,0-0.1,0.1-0.1
				c0.1-0.1,0.2-0.2,0.3-0.3c0.2-0.2,0.5-0.4,0.7-0.7c0.1-0.1,0.1-0.1,0.1-0.1c0.1-0.1,0.4-0.4,0.4-0.4c-0.1-4.3-0.1-7.8-0.3-11.1
				c0-0.6-0.3-0.7-0.5-0.7s-0.4,0.1-0.7,0.2c-0.7,0.4-1.3,1-1.9,1.8c-0.4,0.6-0.8,0.8-1.2,0.8c-0.5,0-0.9-0.5-1.1-0.9
				c-0.2-0.3-0.4-0.4-0.4-0.4c-1.3-0.2-2.5-0.4-3.9-0.6c-0.3-0.1-0.7-0.1-1-0.1c0.7,2.7,0.6,5.4-0.5,8c-1.3,3.1-3.6,4.8-6.5,4.8
				c-0.1,0-0.4,0-0.5,0c-3-0.2-5.1-2-6.2-5.3c-0.4-1.3-0.6-2.7-0.7-4.3c-0.1-0.6-0.1-1.2-0.2-1.8c-0.1,0-0.4,0.1-0.5,0.1
				c-0.8,0.1-1.7,0.3-2.6,0.5c-0.2,0.1-0.5,0.4-0.6,0.7c-0.3,3.6-0.6,7.4-0.8,11.2c0,0.1,0,0.2,0,0.4c0,0.7,0,1.6-1,1.6h-0.1
				c-0.7,0-1.5-0.6-1.9-1.1c-1.3-1.7-1.6-3.8-1.8-5.9c0-0.2-0.1-0.4-0.1-0.7v-0.1c-0.1-1.4-0.3-2.8-0.2-4.2c0.1-1-0.3-1.7-1.3-2.3
				C49,48.7,48.9,48.7,48.8,48.7z M65.9,44c-0.4,0-0.7,0.2-1.2,0.7c-1.5,1.4-2.3,3.7-2.2,6.2c0.1,2.5,1,4.5,2.6,5.9
				c0.7,0.6,1.6,1,2.6,1l0,0c1,0,2-0.4,2.8-1c1.6-1.4,2.7-3.6,2.7-6.2c-0.1-0.3-0.1-0.6-0.1-0.9c-0.1-0.7-0.2-1.4-0.4-2
				c-0.8-2.5-1-2.5-3.6-2.7h-0.1c-0.7-0.2-1.6-0.2-2.3-0.6C66.3,44,66.1,44,65.9,44z M88.1,49.6c0,2.1,0,4.2,0,6.5
				C89.1,53.7,89,50.8,88.1,49.6z M67.1,31.2c-0.4,0-0.8,0-1.2,0.1c-0.4,0-0.7,0-1.2,0.1c-2.7,0-4.8,1.4-5.8,4.2
				c-1,2.7-1.1,5.4-0.3,8.3c0.2-0.1,0.4-0.1,0.6-0.2c0.6-0.2,1.2-0.4,1.7-0.7c0.4-0.1,0.9-0.4,1.3-0.5c1.2-0.4,2.5-1,3.8-1.2
				c0.5-0.1,1.1-0.1,1.8-0.1c0.7,0,1.5,0.1,2.5,0.2c3.3,0.5,6.8,1,10.1,1.6c1.3,0.2,2.7,0.4,4.1,0.7c0.1,0,0.4,0.1,0.6,0.1
				c0.1,0,0.1,0,0.2,0c-0.2-0.7-0.4-1.4-0.5-2.2c-0.7-2.6-1.3-5.1-2.1-7.6c-0.1-0.2-1-0.6-1.6-0.6c-3.1,0-6.4-0.5-10-1.6
				c-1-0.3-2.2-0.4-3.2-0.4h-0.1C67.5,31.2,67.3,31.2,67.1,31.2z"/>
		</g>
		<g>
			<path class="st0" d="M67.9,69.1c-0.2,0-0.9,0-1-0.4v-0.1c-0.1-0.6-0.2-1.3,0-1.8c0.1-0.4,0.9-1,1.3-1c0.1,0,0.1,0,0.1,0
				c0.4,0.1,0.7,0.2,1.1,0.2c0.7,0,1.3-0.2,1.9-0.4c0.2-0.1,0.5-0.1,0.7-0.2c0.2-0.1,0.5-0.1,0.7-0.2c0.7-0.2,1.3-0.4,2.1-0.4
				c0.7,0,1.3,0.2,1.9,0.7c0,0,0.1,0,0.2,0c0.1,0,0.1,0,0.2,0c0.1,0,0.1,0,0.1,0l0.1-0.1c0-0.1,0.1-0.1,0.1-0.1h0.1
				c0.1,0,0.1,0,0.1,0c0.2,0.1,0.5,0.3,0.7,0.4c0.7,0.4,1.3,0.7,1.9,1.1c0.3,0.2,0.4,0.5,0.6,0.8c0.1,0.1,0.1,0.2,0.2,0.4
				c0.1,0.1,0.1,0.1,0,0.2c-0.1,0.1-0.1,0.1-0.2,0.1c-0.1,0-0.4,0.1-0.5,0.1c-0.2,0.1-0.5,0.1-0.7,0.1c-0.2,0-0.4-0.1-0.5-0.1
				c-0.7-0.5-1.4-0.9-2.2-0.9c-0.1,0-0.3,0-0.4,0.1c-0.1,0-0.1,0-0.1,0c-0.2,0-0.4-0.1-0.6-0.1c-0.4-0.3-0.7-0.4-1.2-0.4
				c-0.5,0-1.1,0.2-1.6,0.4c-0.4,0.1-0.9,0.2-1.3,0.4c-0.4,0.1-0.8,0.2-1.2,0.3c-0.3,0.1-0.6,0.1-0.9,0.1c-0.6,0.1-1.2,0.1-1.5,0.7
				C68.3,69.1,68,69.1,67.9,69.1z"/>
		</g>
		<g>
			<path class="st0" d="M84.1,58.1c-0.4,0-1.2-0.3-1.3-0.7c-0.9-1.6-1.7-3.3-2.5-5.1c-0.2-0.5-0.1-1.4,0.2-1.8
				c0.2-0.2,0.5-0.2,0.7-0.2c0.1,0,0.3,0,0.4,0s0.3,0,0.4,0h0.1c0.1,0,0.1,0,0.1,0l0,0c0.1,0.1,0.1,0.1,0.1,0.3v0.1
				c-0.1,1.4,0.1,1.6,1.4,1.9c0.6,0.1,1.2,0.2,1.4,0.7c0.1,0.2,0.2,0.6,0.1,1c-0.1,0.4-0.5,0.5-1,0.7C84.1,55,84,55,83.9,55v0.1
				c0.1,0.3,0.4,0.7,0.7,1c0.3,0.5,0.4,1,0.4,1.3c-0.1,0.3-0.3,0.4-0.6,0.6C84.3,58,84.2,58.1,84.1,58.1z"/>
		</g>
		<g>
			<path class="st0" d="M75.8,71.6L75.8,71.6c-0.3-0.1-0.6-0.1-0.8-0.2c-0.7-0.2-1.3-0.4-1.9-0.7c-0.3-0.1-0.4-0.5-0.4-0.9
				c0-0.1-0.1-0.3-0.1-0.4s0-0.1,0-0.2s0.1-0.1,0.1-0.1c0.1,0,0.2-0.1,0.4-0.1c0.2-0.1,0.4-0.1,0.7-0.1c0.1,0,0.2,0,0.3,0.1
				c0.6,0.2,1.2,0.4,1.9,0.4c0.4,0,0.9-0.1,1.3-0.3c0.1-0.1,0.2-0.1,0.3-0.1c0.2,0,0.8,0.1,1,0.4c0.1,0.4,0.1,1.1-0.2,1.3
				c-0.4,0.3-1,0.5-1.6,0.7c-0.2,0.1-0.4,0.1-0.7,0.2C75.9,71.6,75.8,71.6,75.8,71.6z"/>
		</g>
		<g>
			<path class="st0" d="M48.4,55.9c-0.3,0-0.9-0.4-1-0.7c-0.2-0.5-0.3-1-0.4-1.6c-0.1-0.2-0.1-0.5-0.1-0.7c0-0.1,0-0.1,0-0.1
				c0.1-0.1,0.1-0.3,0.1-0.5c0.1-0.4,0.4-1,0.6-1.5c0.1-0.3,0.7-0.4,1-0.4c0.1,0,0.1,0,0.2,0.1c0.4,0.1,0.7,0.7,0.7,1
				c0.1,1.3,0.1,2.4,0,3.4C49.4,55.3,48.9,55.8,48.4,55.9C48.6,55.9,48.5,55.9,48.4,55.9L48.4,55.9z"/>
		</g>
		<g>
			<path class="st0" d="M84.5,51c-0.1,0-0.1,0-0.1,0c-0.5-0.1-1-0.1-1.5-0.1l-0.6-0.1c0,0,0,0-0.1,0c-0.1,0-0.1,0-0.1-0.1
				s-0.1-0.1-0.1-0.3l0,0c0-0.1,0-0.2-0.1-0.4c-0.1-0.7-0.1-1,0.1-1.1c0.8-0.3,1.5-0.4,2.2-0.4c0.1,0,0.1,0,0.1,0c0.4,0,1,0.6,1.2,1
				c0.1,0.4,0,0.7-0.1,1C85.3,50.7,85.1,51,84.5,51z"/>
		</g>
		<g>
			<path class="st0" d="M76.5,60.8c-0.1,0-0.2,0-0.3-0.1c-0.3-0.1-0.6-0.3-0.9-0.5c-0.1-0.1-0.2-0.1-0.3-0.2C75,60,75,60,75,59.9
				c0-0.1,0-0.1,0.1-0.2c0.1-0.1,0.1-0.2,0.3-0.3c0.2-0.3,0.4-0.5,0.8-0.7c0.4-0.1,0.8-0.1,1.3-0.1c0.3,0,0.6,0,1,0.1
				c0.3,0.1,0.5,0.3,0.7,0.5c0.1,0.1,0.1,0.1,0.2,0.2c0.1,0.1,0.1,0.1,0.1,0.1c0,0.1,0,0.1-0.1,0.1c-0.1,0.1-0.1,0.1-0.2,0.2
				c-0.2,0.2-0.4,0.4-0.7,0.6c-0.3,0.1-0.7,0.1-1,0.1c-0.1,0-0.3,0-0.4,0l0,0c0,0,0,0-0.1,0s-0.1,0-0.1,0
				C76.7,60.8,76.6,60.8,76.5,60.8z"/>
		</g>
		<g>
			<path class="st0" d="M70.1,49.5c-0.2,0-0.4,0-0.6,0c-0.2,0-0.4,0-0.6,0c-0.1,0-0.1,0-0.1-0.1c-0.1,0-0.2,0-0.4,0
				c-0.1,0-0.4,0-0.5,0c-0.3,0-0.4,0-0.7-0.1c-0.4-0.1-0.7-0.4-1-0.6c-0.1-0.1-0.3-0.2-0.4-0.3c-0.1-0.1-0.1-0.1-0.1-0.1
				s0-0.1,0.1-0.2c0.1-0.1,0.2-0.3,0.4-0.4c0.3-0.4,0.6-0.7,1-0.8c0.2,0,0.4,0,0.6,0c1,0,2.2,0.1,3.6,0.3c0.2,0,0.4,0.2,0.5,0.4
				c0.1,0.3,0.4,0.7,0.3,0.9c-0.1,0.4-0.7,0.8-1.1,0.9C70.7,49.5,70.5,49.5,70.1,49.5L70.1,49.5z"/>
		</g>
		<g>
			<path class="st0" d="M68.5,55.5c-0.3,0-0.6-0.1-0.8-0.4s-0.4-0.5-0.4-0.9v-0.1v-0.1c0-0.1,0.1-0.3,0.2-0.4h0.1
				c1.3-0.7,2.5-1.6,3.8-2.3c0.1,0,0.1-0.1,0.1-0.1c0.3,0,0.8,0.4,1,0.7s0,1-0.3,1.2c-1.1,0.8-2.2,1.5-3.2,2.1
				C68.9,55.4,68.7,55.5,68.5,55.5L68.5,55.5z"/>
		</g>
	</g>
</g>
</svg>
