<?xml version="1.0" encoding="utf-8"?>
<!-- Generator: Adobe Illustrator 23.0.0, SVG Export Plug-In . SVG Version: 6.00 Build 0)  -->
<svg version="1.1" id="圖層_1" xmlns="http://www.w3.org/2000/svg" xmlns:xlink="http://www.w3.org/1999/xlink" x="0px" y="0px"
	 viewBox="0 0 342 191" style="enable-background:new 0 0 342 191;" xml:space="preserve">
<style type="text/css">
	.st0{fill:#F2F2F2;}
	.st1{fill:#DBD000;}
</style>
<path class="st0" d="M85.5,40L106,10.6v-0.2H87.4v-8h31.3V8L98.6,37v0.2H119v8H85.5V40z"/>
<path class="st0" d="M131.7,32.8c0.3,4,4.3,5.9,8.8,5.9c3.3,0,6-0.4,8.6-1.3l1.3,6.6c-3.2,1.3-7.1,2-11.3,2
	c-10.6,0-16.7-6.2-16.7-15.9c0-7.9,5-16.7,15.8-16.7c10.1,0,14,7.9,14,15.6c0,1.7-0.2,3.1-0.3,3.8H131.7z M143.1,26.1
	c0-2.3-1-6.3-5.5-6.3c-4.1,0-5.8,3.7-6,6.3C131.6,26.1,143.1,26.1,143.1,26.1z"/>
<path class="st0" d="M167.7,27.2h0.1c0.7-1.3,1.5-2.6,2.3-3.8l6.3-9.4h11.7l-11.2,12.7l12.8,18.5h-11.9l-7.6-12.8l-2.5,3.1v9.7H158
	V0h9.7L167.7,27.2L167.7,27.2z"/>
<path class="st0" d="M199.2,32.8c0.3,4,4.3,5.9,8.8,5.9c3.3,0,6-0.4,8.6-1.3l1.3,6.6c-3.2,1.3-7.1,2-11.3,2
	c-10.6,0-16.7-6.2-16.7-15.9c0-7.9,5-16.7,15.8-16.7c10.1,0,14,7.9,14,15.6c0,1.7-0.2,3.1-0.3,3.8H199.2z M210.6,26.1
	c0-2.3-1-6.3-5.5-6.3c-4.1,0-5.8,3.7-6,6.3C199.1,26.1,210.6,26.1,210.6,26.1z"/>
<path class="st0" d="M232.2,1.2c-1.6,4.9-3.7,9.8-6,13.5l-4.6,0.4c1.5-4.3,2.8-9.1,3.5-13.5L232.2,1.2z"/>
<path class="st0" d="M234.6,36.8c1.8,1.1,5.5,2.3,8.3,2.3c2.9,0,4.2-1,4.2-2.6s-1-2.4-4.6-3.6c-6.5-2.1-9-5.7-8.9-9.3
	c0-5.9,5-10.3,12.7-10.3c3.7,0,6.9,0.9,8.8,1.8l-1.7,6.7c-1.4-0.7-4.1-1.8-6.8-1.8c-2.4,0-3.7,0.9-3.7,2.5c0,1.5,1.2,2.3,5.1,3.6
	c5.9,2,8.4,5.1,8.5,9.6c0,5.8-4.6,10.1-13.5,10.1c-4.1,0-7.7-0.9-10.1-2.2L234.6,36.8z"/>
<path class="st0" d="M87.9,89.3c0-4.1-0.1-7.6-0.3-10.5h8.5l0.5,4.4h0.1c2.3-3.3,5.9-5.1,10.4-5.1c6.8,0,13,5.9,13,15.9
	c0,11.4-7.3,16.7-14.2,16.7c-3.7,0-6.7-1.5-8.1-3.6h-0.1v11.6H88V89.3H87.9z M97.6,96.7c0,0.7,0.1,1.4,0.2,2
	c0.6,2.6,2.9,4.6,5.7,4.6c4.2,0,6.7-3.5,6.7-8.8c0-5-2.2-8.7-6.6-8.7c-2.8,0-5.2,2.1-5.8,4.9c-0.1,0.6-0.2,1.1-0.2,1.7
	C97.6,92.4,97.6,96.7,97.6,96.7z"/>
<path class="st0" d="M126.1,68.7h9.7v15.9h0.1c1-1.4,2.3-2.4,3.8-3.2c1.4-0.8,3.3-1.2,5.1-1.2c6.2,0,11,4.3,11,13.7V112h-9.7V94.8
	c0-4.1-1.4-6.9-5-6.9c-2.6,0-4.2,1.7-4.9,3.4c-0.2,0.6-0.3,1.4-0.3,2.1V112h-9.7V68.7H126.1z"/>
<path class="st1" d="M178.5,80.1c-10.1,0-16.7,6.5-16.7,16.5c0,10.1,7.1,16.1,16.2,16.1c8.4,0,16.5-5.2,16.5-16.6
	C194.4,86.7,188.1,80.1,178.5,80.1z M178,103.7c-4.1,0-7.2-2.7-7.2-7.2s3-7.4,7.5-7.4c4.3,0,7.1,2.9,7.1,7.1
	C185.4,101.3,181.8,103.7,178,103.7z"/>
<path class="st0" d="M212.3,73.9v6.9h7V88h-7v11.3c0,3.8,0.9,5.5,3.8,5.5c1.3,0,2.2-0.1,2.9-0.3l0.1,7.4c-1.3,0.5-3.6,0.8-6.3,0.8
	c-3.1,0-5.8-1.1-7.3-2.7c-1.8-1.8-2.7-4.8-2.7-9.2V87.9h-4.2v-7.2h4.2V76L212.3,73.9z"/>
<path class="st0" d="M255.5,96.1c0,11.4-8.1,16.6-16.5,16.6c-9.1,0-16.2-6-16.2-16.1s6.7-16.5,16.7-16.5
	C249.1,80.1,255.5,86.7,255.5,96.1z M232.8,96.4c0,5.3,2.3,9.4,6.4,9.4c3.8,0,6.2-3.8,6.2-9.4c0-4.6-1.8-9.3-6.2-9.3
	C234.6,87,232.8,91.8,232.8,96.4z"/>
<path class="st0" d="M87.6,177.7c0.1-2.1,0.3-5.8,0.3-9.3v-51h9.7v32.8h0.1c1.9-2.7,5.1-4.4,9.4-4.4c7.5,0,13,6.2,12.9,15.7
	c0,11.2-7.1,16.8-14.3,16.8c-3.7,0-7.2-1.4-9.4-5h-0.1l-0.4,4.3L87.6,177.7L87.6,177.7z M97.6,164.4c0,0.6,0.1,1.2,0.2,1.7
	c0.6,2.6,2.9,4.6,5.7,4.6c4.1,0,6.7-3.2,6.7-8.8c0-4.9-2.2-8.7-6.7-8.7c-2.7,0-5.1,2-5.7,4.8c-0.1,0.6-0.2,1.2-0.2,1.8V164.4z"/>
<path class="st0" d="M126.1,130.4h9.7v47.3h-9.7C126.1,177.7,126.1,130.4,126.1,130.4z"/>
<path class="st0" d="M174.6,161.8c0,11.4-8.1,16.6-16.5,16.6c-9.1,0-16.2-6-16.2-16.1s6.7-16.5,16.7-16.5
	C168.2,145.8,174.6,152.4,174.6,161.8z M151.9,162.1c0,5.3,2.3,9.4,6.4,9.4c3.8,0,6.2-3.8,6.2-9.4c0-4.6-1.8-9.3-6.2-9.3
	C153.7,152.7,151.9,157.5,151.9,162.1z"/>
<path class="st0" d="M210.6,146.5c-0.1,2-0.3,4.6-0.3,9.3v17.4c0,6-1.2,10.9-4.8,14c-3.4,3-8.1,3.8-12.7,3.8
	c-4.1,0-8.4-0.8-11.2-2.4l1.9-7.4c2,1.1,5.4,2.3,9.1,2.3c4.6,0,8.1-2.5,8.1-8.2v-2h-0.1c-1.8,2.6-4.8,4-8.4,4
	c-7.7,0-13.2-6.3-13.2-15.2c0-10.1,6.5-16.4,14.2-16.4c4.3,0,7,1.9,8.6,4.4h0.1l0.3-3.7L210.6,146.5L210.6,146.5z M200.6,159.2
	c0-0.6-0.1-1.3-0.2-1.8c-0.7-2.6-2.5-4.3-5.2-4.3c-3.5,0-6.4,3.2-6.4,8.9c0,4.6,2.3,8.3,6.3,8.3c2.5,0,4.5-1.7,5.2-3.9
	c0.2-0.7,0.3-1.8,0.3-2.6L200.6,159.2L200.6,159.2z"/>
<polygon class="st1" points="164.6,66.5 164.6,62.9 155.6,62.9 155.6,66.9 155.6,67.9 155.6,68.9 155.7,68.9 200.6,68.9 200.6,66.9 
	200.6,66.5 "/>
<rect x="155.7" y="123.9" class="st1" width="44.9" height="2.4"/>
</svg>
