<?xml version="1.0" encoding="utf-8"?>
<!-- Generator: Adobe Illustrator 23.0.0, SVG Export Plug-In . SVG Version: 6.00 Build 0)  -->
<svg version="1.1" id="圖層_1" xmlns="http://www.w3.org/2000/svg" xmlns:xlink="http://www.w3.org/1999/xlink" x="0px" y="0px"
	 viewBox="0 0 97.9 37.9" style="enable-background:new 0 0 97.9 37.9;" xml:space="preserve">
<style type="text/css">
	.st0{fill:#F2F2F2;}
	.st1{fill:#DBD000;}
</style>
<path class="st0" d="M69.6,0h12.9c8.7,0,15.4,3,15.4,12.3c0,9-6.7,13-15.2,13h-5.3V37h-7.8V0z M82.2,19.1c5.4,0,8-2.3,8-6.8
	c0-4.6-2.9-6.1-8.3-6.1h-4.4v12.9H82.2z"/>
<circle class="st1" cx="18.5" cy="19.4" r="18.5"/>
<path class="st0" d="M50.5,0v23.7c0,5.4-1.8,7.3-5.2,7.3c-0.5,0-1-0.1-1.5-0.2c-0.9,2.1-2.2,4.1-3.6,5.8c1.8,0.7,3.7,1.2,6.1,1.2
	c8.4,0,12.1-6,12.1-13.4V0H50.5z"/>
</svg>
