<?xml version="1.0" encoding="utf-8"?>
<!-- Generator: Adobe Illustrator 23.0.0, SVG Export Plug-In . SVG Version: 6.00 Build 0)  -->
<svg version="1.1" id="圖層_1" xmlns="http://www.w3.org/2000/svg" xmlns:xlink="http://www.w3.org/1999/xlink" x="0px" y="0px"
	 viewBox="0 0 342 131.9" style="enable-background:new 0 0 342 131.9;" xml:space="preserve">
<style type="text/css">
	.st0{fill:#F2F2F2;}
	.st1{fill:#DBD000;}
</style>
<path class="st0" d="M243.7,0h44.8C318.8,0,342,10.5,342,42.8c0,31.2-23.4,45.2-52.7,45.2H271v40.8h-27.3V0z M287.4,66.4
	c18.8,0,27.8-7.9,27.8-23.6c0-15.9-10-21.2-28.8-21.2H271v44.8H287.4z"/>
<circle class="st1" cx="66" cy="67.4" r="64.5"/>
<path class="st0" d="M177,0v82.4c0,18.8-6.3,25.3-18.2,25.3c-1.8,0-3.6-0.2-5.3-0.7c-3.3,7.3-7.5,14.1-12.5,20.3
	c6.1,2.6,13,4,21.1,4c29.3,0,42.2-21,42.2-46.6V0H177z"/>
</svg>
