<?xml version="1.0" encoding="utf-8"?>
<!-- Generator: Adobe Illustrator 23.0.0, SVG Export Plug-In . SVG Version: 6.00 Build 0)  -->
<svg version="1.1" id="圖層_1" xmlns="http://www.w3.org/2000/svg" xmlns:xlink="http://www.w3.org/1999/xlink" x="0px" y="0px"
	 viewBox="0 0 30 30" style="enable-background:new 0 0 30 30;" xml:space="preserve">
<style type="text/css">
	.st0{fill:#FFFFFF;}
</style>
<path class="st0" d="M20.7,5H9.4C7,5,5.1,6.9,5.1,9.3v11.3C5.1,23.1,7,25,9.4,25h11.3c2.4,0,4.3-1.9,4.3-4.3V9.3
	C25.1,6.9,23.1,5,20.7,5z M16.1,20h-2v-7h2V20z M15.1,12c-0.6,0-1-0.4-1-1c0-0.6,0.4-1,1-1c0.6,0,1,0.4,1,1
	C16.1,11.6,15.7,12,15.1,12z"/>
</svg>
