<?xml version="1.0" encoding="utf-8"?>
<!-- Generator: Adobe Illustrator 23.0.0, SVG Export Plug-In . SVG Version: 6.00 Build 0)  -->
<svg version="1.1" id="圖層_1" xmlns="http://www.w3.org/2000/svg" xmlns:xlink="http://www.w3.org/1999/xlink" x="0px" y="0px"
	 viewBox="0 0 16 16" style="enable-background:new 0 0 16 16;" xml:space="preserve">
<style type="text/css">
	.st0{fill:#FFFFFF;}
</style>
<path class="st0" d="M4.3,14c0-0.1,0-0.2,0-0.3c0-0.7,0-1.4,0-2.1c0-0.2-0.1-0.3-0.2-0.4c-1.1-0.9-1.8-2-2-3.4
	C1.9,6.4,2.3,5.2,3.2,4.1c1-1.2,2.3-1.8,3.9-2c1.9-0.3,3.6,0.2,5.1,1.4c1.3,1,2,2.4,1.9,4.1c-0.1,1.6-0.9,2.9-2.2,3.8
	c-1.4,1-3,1.4-4.7,1.2c-0.2,0-0.4,0-0.6,0.1c-0.7,0.4-1.4,0.9-2.1,1.3C4.4,13.9,4.4,13.9,4.3,14z M8,6.1c-0.8,0-1.6,0-2.4,0
	c-0.1,0-0.1,0-0.2,0C5.1,6.2,5,6.3,5,6.5c0,0.2,0.1,0.4,0.4,0.4c0.1,0,0.1,0,0.2,0c1.7,0,3.3,0,5,0c0.1,0,0.2,0,0.2,0
	c0.2,0,0.3-0.2,0.3-0.3c0-0.2-0.1-0.3-0.3-0.4c-0.1,0-0.2,0-0.3,0C9.6,6.1,8.8,6.1,8,6.1z M8,9.1c0.6,0,1.2,0,1.8,0
	c0.2,0,0.4-0.1,0.4-0.3c0.1-0.3-0.1-0.5-0.4-0.5c-1.2,0-2.4,0-3.6,0c-0.3,0-0.5,0.1-0.5,0.4c0,0.2,0.2,0.4,0.5,0.4
	C6.8,9.1,7.4,9.1,8,9.1z"/>
</svg>
