<?xml version="1.0" encoding="utf-8"?>
<!-- Generator: Adobe Illustrator 23.0.0, SVG Export Plug-In . SVG Version: 6.00 Build 0)  -->
<svg version="1.1" id="圖層_1" xmlns="http://www.w3.org/2000/svg" xmlns:xlink="http://www.w3.org/1999/xlink" x="0px" y="0px"
	 viewBox="0 0 30 30" style="enable-background:new 0 0 30 30;" xml:space="preserve">
<style type="text/css">
	.st0{fill:#FFFFFF;}
</style>
<g>
	<path class="st0" d="M16.5,8c-3,0-5.5,2.5-5.5,5.5c0,1.2,0.4,2.2,1,3.1l-5,5L8.4,23l5-5c0.9,0.6,2,1,3.1,1c3,0,5.5-2.5,5.5-5.5
		C22,10.5,19.5,8,16.5,8z M16.5,17c-1.9,0-3.5-1.6-3.5-3.5c0-1.9,1.6-3.5,3.5-3.5s3.5,1.6,3.5,3.5C20,15.4,18.4,17,16.5,17z"/>
</g>
</svg>
